<?xml version="1.0" encoding="UTF-8"?>
<svg width="44px" height="35px" viewBox="0 0 44 35" version="1.1" xmlns="http://www.w3.org/2000/svg" xmlns:xlink="http://www.w3.org/1999/xlink">
    <!-- Generator: Sketch 51.2 (57519) - http://www.bohemiancoding.com/sketch -->
    <title>chat-2</title>
    <desc>Created with Sketch.</desc>
    <defs></defs>
    <g id="Selected" stroke="none" stroke-width="1" fill="none" fill-rule="evenodd">
        <g id="MyTax-Services-Copy-3" transform="translate(-180.000000, -1024.000000)" fill="#004D86" fill-rule="nonzero">
            <g id="Group-11" transform="translate(180.000000, 1024.000000)">
                <g id="chat-2">
                    <path d="M31.6265777,0.0643932039 L2.44923544,0.0643932039 C1.09867718,0.0643932039 0,1.16307039 0,2.51354369 L0,20.018301 C0,21.3687743 1.09867718,22.4675364 2.44923544,22.4675364 L4.34118932,22.4675364 L4.34118932,28.9841626 C4.34118932,29.3990655 4.5911165,29.7732767 4.97458738,29.9321359 C5.10150485,29.9848058 5.23487864,30.0102913 5.36706311,30.0102913 C5.63415049,30.0102913 5.89648058,29.9059709 6.0928034,29.709733 L13.335,22.4676214 L14.7880097,22.4676214 C15.3547209,22.4676214 15.8140534,22.0082888 15.8140534,21.4415777 C15.8140534,20.8747816 15.354551,20.415449 14.7880097,20.415449 C14.7880097,20.415449 12.8604612,20.4168083 12.8403277,20.4188471 C12.6014442,20.4350728 12.3669782,20.5334466 12.1843325,20.7160073 L6.3932767,26.5070631 C6.3932767,26.5070631 6.39149272,21.3766748 6.38817961,21.350085 C6.34188107,20.8262743 5.90251214,20.415449 5.3667233,20.415449 L2.44923544,20.415449 C2.23023058,20.415449 2.05217233,20.2373058 2.05217233,20.0183859 L2.05217233,2.51354369 C2.05217233,2.29453883 2.23031553,2.11648058 2.44923544,2.11648058 L31.6265777,2.11648058 C31.8455825,2.11648058 32.0236408,2.29462379 32.0236408,2.51354369 L32.0236408,9.22938107 C32.0236408,9.79609223 32.4831432,10.2554248 33.0496845,10.2554248 C33.6162257,10.2554248 34.0757282,9.79609223 34.0757282,9.22938107 L34.0757282,2.51354369 C34.0757282,1.16307039 32.977051,0.0643932039 31.6265777,0.0643932039 Z" id="Shape"></path>
                    <path d="M41.0459102,12.6146117 L20.6223058,12.6146117 C19.2718325,12.6146117 18.1730704,13.7132888 18.1730704,15.0638471 L18.1730704,27.0054733 C18.1730704,28.3559466 19.2717476,29.4547087 20.6223058,29.4547087 L33.4086893,29.4547087 L38.5890291,34.6350485 C38.7853519,34.8313714 39.047767,34.9356068 39.3147694,34.9356068 C39.4469539,34.9356068 39.5803277,34.9100364 39.7072451,34.8574515 C40.0905461,34.6985922 40.3406432,34.324551 40.3406432,33.9094782 L40.3406432,29.4546238 L41.0458252,29.4546238 C42.3962985,29.4546238 43.4950607,28.3559466 43.4950607,27.0053883 L43.4950607,15.0637621 C43.4951456,13.7132888 42.3964684,12.6146117 41.0459102,12.6146117 Z M41.4430583,27.0054733 C41.4430583,27.2243932 41.264915,27.4025364 41.0459951,27.4025364 L39.3150243,27.4025364 C38.7750728,27.4025364 38.3334951,27.819818 38.2929733,28.3494903 C38.2903398,28.3719175 38.2886408,31.4323786 38.2886408,31.4323786 L34.5631796,27.7068325 C34.5592718,27.7029248 34.5551942,27.6992718 34.5512864,27.6953641 C34.5366748,27.6810922 34.5228277,27.6686893 34.5097451,27.6575607 C34.3291383,27.4992112 34.0932282,27.4024515 33.8342961,27.4024515 L20.6223058,27.4024515 C20.403301,27.4024515 20.2252427,27.2243083 20.2252427,27.0053883 L20.2252427,15.0637621 C20.2252427,14.8447573 20.4033859,14.666699 20.6223058,14.666699 L41.0459951,14.666699 C41.264915,14.666699 41.4430583,14.8448422 41.4430583,15.0637621 L41.4430583,27.0054733 Z" id="Shape"></path>
                    <path d="M30.8343204,20.0086165 C30.267949,20.0086165 29.8082767,20.4682888 29.8082767,21.0346602 C29.8082767,21.6010316 30.267949,22.0607039 30.8343204,22.0607039 C31.4007767,22.0607039 31.8603641,21.6010316 31.8603641,21.0346602 C31.8603641,20.4682888 31.4006917,20.0086165 30.8343204,20.0086165 Z" id="Shape"></path>
                    <path d="M26.3750485,6.84802184 C26.3750485,6.84802184 7.70084951,6.84802184 7.70084951,6.84802184 C7.1342233,6.84802184 6.67480583,7.30735437 6.67480583,7.87406553 C6.67480583,8.4407767 7.13430825,8.90010922 7.70084951,8.90010922 L26.3750485,8.90010922 C26.9416748,8.90010922 27.4010922,8.4407767 27.4010922,7.87406553 C27.4010922,7.30735437 26.9416748,6.84802184 26.3750485,6.84802184 Z" id="Shape"></path>
                    <path d="M14.7879248,13.6317354 L7.70084951,13.6317354 C7.1342233,13.6317354 6.67480583,14.091068 6.67480583,14.6577791 C6.67480583,15.2244903 7.13430825,15.6838228 7.70084951,15.6838228 L14.7879248,15.6838228 C15.3546359,15.6838228 15.8139684,15.2244903 15.8139684,14.6577791 C15.8139684,14.091068 15.354551,13.6317354 14.7879248,13.6317354 Z" id="Shape"></path>
                    <path d="M26.06625,20.0086165 C25.4999636,20.0086165 25.0402063,20.4682888 25.0402063,21.0346602 C25.0402063,21.6010316 25.4999636,22.0607039 26.06625,22.0607039 C26.6327063,22.0607039 27.0922937,21.6010316 27.0922937,21.0346602 C27.0922937,20.4682888 26.6327063,20.0086165 26.06625,20.0086165 Z" id="Shape"></path>
                    <path d="M35.6013714,20.0086165 C35.035,20.0086165 34.5753277,20.4682888 34.5753277,21.0346602 C34.5753277,21.6010316 35.035,22.0607039 35.6013714,22.0607039 C36.1678277,22.0607039 36.627415,21.6010316 36.627415,21.0346602 C36.627415,20.4682888 36.1677427,20.0086165 35.6013714,20.0086165 Z" id="Shape"></path>
                </g>
            </g>
        </g>
    </g>
</svg>