<?xml version="1.0" encoding="UTF-8"?>
<svg width="45px" height="30px" viewBox="0 0 45 30" version="1.1" xmlns="http://www.w3.org/2000/svg" xmlns:xlink="http://www.w3.org/1999/xlink">
    <!-- Generator: Sketch 51.2 (57519) - http://www.bohemiancoding.com/sketch -->
    <title>Shape</title>
    <desc>Created with Sketch.</desc>
    <defs></defs>
    <g id="Selected" stroke="none" stroke-width="1" fill="none" fill-rule="evenodd">
        <g id="MyTax-Services-Copy-3" transform="translate(-169.000000, -626.000000)" fill="#595D61" fill-rule="nonzero">
            <g id="Group-13" transform="translate(134.000000, 377.000000)">
                <g id="Group-2" transform="translate(35.000000, 249.000000)">
                    <g id="cloud-2">
                        <path d="M38.232,12.1455 C37.83525,5.3955 32.271,0 25.56375,0 C21.49125,0 17.54775,1.99725 15.10425,5.256 C15.048,5.22675 14.98875,5.2065 14.93175,5.1795 C14.78325,5.1075 14.6325,5.03925 14.47875,4.97775 C14.39325,4.944 14.30775,4.91325 14.2215,4.88325 C14.06925,4.83 13.91475,4.78275 13.75725,4.74 C13.671,4.71675 13.5855,4.69275 13.4985,4.67325 C13.32975,4.635 13.15725,4.60575 12.98325,4.5795 C12.9075,4.56825 12.83325,4.55325 12.75675,4.545 C12.50775,4.51725 12.25575,4.5 12,4.5 C8.27775,4.5 5.25,7.52775 5.25,11.25 C5.25,11.34525 5.256,11.439 5.262,11.53275 L5.262,11.53575 C2.14275,13.23675 0,16.79925 0,20.3655 C0,25.67775 4.3215,30 9.63375,30 L28.01475,30 C28.09275,30 28.17,29.9955 28.248,29.9895 L28.2945,29.9835 L28.395,29.9895 C28.4715,29.9955 28.548,30 28.62675,30 L35.979,30 C40.953,30 45,25.953 45,20.979 C45,16.86225 42.12975,13.17 38.232,12.1455 Z M35.979,28.5 L28.62675,28.5 C28.5825,28.5 28.53975,28.49625 28.49625,28.49325 L28.293,28.485 L28.1445,28.49325 C28.10175,28.49625 28.05825,28.5 28.01475,28.5 L9.63375,28.5 C5.14875,28.5 1.5,24.85125 1.5,20.3655 C1.5,17.25 3.52875,14.016 6.32475,12.67575 L6.75,12.4725 L6.75,12 C6.75,11.90475 6.756,11.808 6.76125,11.7105 L6.768,11.5905 L6.759,11.433 C6.7545,11.37225 6.75,11.3115 6.75,11.25 C6.75,8.35575 9.10575,6 12,6 C12.23175,6 12.4605,6.02025 12.68775,6.05025 C12.74625,6.05775 12.80475,6.0675 12.8625,6.07725 C13.06275,6.11025 13.26,6.15375 13.45425,6.21 C13.4805,6.2175 13.5075,6.22275 13.53375,6.23025 C13.7475,6.2955 13.956,6.378 14.16,6.471 C14.21325,6.495 14.265,6.52125 14.3175,6.54675 C14.4975,6.636 14.67375,6.7335 14.844,6.84375 C16.28925,7.77975 17.25,9.4035 17.25,11.25 C17.25,11.66475 17.58525,12 18,12 C18.41475,12 18.75,11.66475 18.75,11.25 C18.75,9.1845 17.8155,7.33575 16.35,6.09675 C18.50025,3.28425 22.041,1.5 25.56375,1.5 C31.3725,1.5 36.1965,6.10125 36.69975,11.916 C35.93325,11.862 34.78575,11.83425 33.6375,12.009 C33.228,12.07125 32.94675,12.45375 33.009,12.86325 C33.06525,13.2345 33.38475,13.50075 33.74925,13.50075 C33.78675,13.50075 33.825,13.49775 33.8625,13.49175 C35.53275,13.239 37.2735,13.476 37.3755,13.49025 C40.8675,14.154 43.5,17.37075 43.5,20.979 C43.5,25.12575 40.12575,28.5 35.979,28.5 Z" id="Shape"></path>
                    </g>
                </g>
            </g>
        </g>
    </g>
</svg>