<?xml version="1.0" encoding="UTF-8"?>
<svg width="24px" height="30px" viewBox="0 0 24 30" version="1.1" xmlns="http://www.w3.org/2000/svg" xmlns:xlink="http://www.w3.org/1999/xlink">
    <!-- Generator: Sketch 51.2 (57519) - http://www.bohemiancoding.com/sketch -->
    <title>Shape</title>
    <desc>Created with Sketch.</desc>
    <defs></defs>
    <g id="Selected" stroke="none" stroke-width="1" fill="none" fill-rule="evenodd">
        <g id="MyTax-Services-Copy-3" transform="translate(-576.000000, -626.000000)" fill="#595D61" fill-rule="nonzero">
            <g id="Group-13" transform="translate(539.000000, 377.000000)">
                <g id="Group-2" transform="translate(37.000000, 249.000000)">
                    <g id="user-2">
                        <path d="M15.5288308,12.5414679 C17.4792923,11.3485321 18.7546154,9.26082569 18.7546154,6.80036697 C18.7546154,3.07238532 15.7538769,0.09 12.0029538,0.09 C8.25203077,0.09 5.25129231,3.07238532 5.25129231,6.80036697 C5.25129231,9.26082569 6.52661538,11.3485321 8.47707692,12.5414679 C3.52587692,14.0326606 0,18.5807339 0,23.9489908 C0,30.5101835 5.70138462,29.8391743 7.80193846,29.9883486 C8.40212308,29.9883486 15.4537846,29.9883486 16.1290154,29.9883486 C20.1049846,29.9883486 23.9309538,29.5410092 23.9309538,23.9489908 C24.0059077,18.5807339 20.4049846,14.0326606 15.5288308,12.5414679 Z M6.75166154,6.87495413 C6.75166154,3.96715596 9.07726154,1.65577982 12.0029538,1.65577982 C14.9286462,1.65577982 17.2542462,3.96715596 17.2542462,6.87495413 C17.2542462,9.78275229 14.9286462,12.0941284 12.0029538,12.0941284 C9.15221538,12.0195413 6.75166154,9.70816514 6.75166154,6.87495413 Z M16.2039692,28.497156 C15.6037846,28.497156 8.47707692,28.497156 7.87689231,28.497156 C5.17624615,28.4225688 1.57532308,28.7208257 1.57532308,23.9489908 C1.57532308,18.2078899 6.30147692,13.5106422 12.0779077,13.5106422 C17.8543385,13.5106422 22.5804923,18.2078899 22.5804923,23.9489908 C22.5055385,27.8261468 20.5549846,28.497156 16.2039692,28.497156 Z" id="Shape"></path>
                    </g>
                </g>
            </g>
        </g>
    </g>
</svg>