<?xml version="1.0" encoding="UTF-8"?>
<svg width="32px" height="35px" viewBox="0 0 32 35" version="1.1" xmlns="http://www.w3.org/2000/svg" xmlns:xlink="http://www.w3.org/1999/xlink">
    <!-- Generator: Sketch 51.2 (57519) - http://www.bohemiancoding.com/sketch -->
    <title>placeholder</title>
    <desc>Created with Sketch.</desc>
    <defs></defs>
    <g id="Selected" stroke="none" stroke-width="1" fill="none" fill-rule="evenodd">
        <g id="MyTax-Services-Copy-3" transform="translate(-1062.000000, -1024.000000)" fill="#004D86" fill-rule="nonzero">
            <g id="placeholder" transform="translate(1062.000000, 1024.000000)">
                <path d="M19.7785714,26.1214286 C22.7285714,21.2285714 26.4571429,14.35 26.4571429,10.8142857 C26.4571429,4.85 21.6071429,-2.84217094e-14 15.6428571,-2.84217094e-14 C9.67857143,-2.84217094e-14 4.82857143,4.85 4.82857143,10.8142857 C4.82857143,14.35 8.55714286,21.2285714 11.5071429,26.1214286 C8.00714286,26.3857143 0.0428571429,27.3357143 0.0428571429,30.4857143 C0.0428571429,33.5857143 8.12857143,35 15.65,35 C23.1642857,35 31.2571429,33.5857143 31.2571429,30.4857143 C31.25,27.3357143 23.2785714,26.3857143 19.7785714,26.1214286 Z M6.32142857,10.8142857 C6.32142857,5.67142857 10.5071429,1.48571429 15.6428571,1.48571429 C20.7857143,1.48571429 24.9714286,5.67142857 24.9714286,10.8142857 C24.9714286,15.3071429 17.8142857,26.5785714 15.6428571,29.8928571 C13.4714286,26.5785714 6.32142857,15.3071429 6.32142857,10.8142857 Z M15.6428571,33.5071429 C6.50714286,33.5071429 1.52857143,31.5071429 1.52857143,30.4785714 C1.52857143,29.6857143 4.81428571,27.9785714 12.3857143,27.5428571 C13.8071429,29.8357143 14.8857143,31.4571429 15.0285714,31.65 C15.2214286,31.9071429 15.7857143,32.2142857 16.2642857,31.65 C16.4142857,31.4714286 17.4857143,29.8357143 18.9071429,27.5428571 C26.4785714,27.9785714 29.7642857,29.6785714 29.7642857,30.4785714 C29.7571429,31.5142857 24.7785714,33.5071429 15.6428571,33.5071429 Z" id="Shape"></path>
                <path d="M20.35,10.8142857 C20.35,8.21428571 18.2428571,6.10714286 15.6428571,6.10714286 C13.0428571,6.10714286 10.9357143,8.21428571 10.9357143,10.8142857 C10.9357143,13.4142857 13.0428571,15.5214286 15.6428571,15.5214286 C18.2428571,15.5214286 20.35,13.4142857 20.35,10.8142857 Z M12.4214286,10.8142857 C12.4214286,9.03571429 13.8642857,7.59285714 15.6428571,7.59285714 C17.4214286,7.59285714 18.8642857,9.03571429 18.8642857,10.8142857 C18.8642857,12.5928571 17.4214286,14.0357143 15.6428571,14.0357143 C13.8642857,14.0357143 12.4214286,12.5928571 12.4214286,10.8142857 Z" id="Shape"></path>
            </g>
        </g>
    </g>
</svg>