<?xml version="1.0" encoding="UTF-8"?>
<svg width="38px" height="35px" viewBox="0 0 38 35" version="1.1" xmlns="http://www.w3.org/2000/svg" xmlns:xlink="http://www.w3.org/1999/xlink">
    <!-- Generator: Sketch 51.2 (57519) - http://www.bohemiancoding.com/sketch -->
    <title>upload-2</title>
    <desc>Created with Sketch.</desc>
    <defs></defs>
    <g id="Selected" stroke="none" stroke-width="1" fill="none" fill-rule="evenodd">
        <g id="MyTax-Services-Copy-3" transform="translate(-638.000000, -1024.000000)" fill="#004D86" fill-rule="nonzero">
            <g id="Group-10" transform="translate(638.000000, 1024.000000)">
                <g id="upload-2">
                    <path d="M30.7611111,9.16222222 C30.3566667,6.75888889 29.1666667,4.56555556 27.3466667,2.90111111 C25.3244444,1.05 22.6955556,0.0311111111 19.9577778,0.0311111111 C17.8422222,0.0311111111 15.7811111,0.637777778 14.0155556,1.78111111 C12.5455556,2.73 11.3244444,4.01333333 10.4611111,5.52222222 C10.0877778,5.45222222 9.69888889,5.41333333 9.31,5.41333333 C6.00444444,5.41333333 3.31333333,8.10444444 3.31333333,11.41 C3.31333333,11.8377778 3.36,12.25 3.43777778,12.6544444 C1.29888889,14.21 0,16.7144444 0,19.3822222 C0,21.5366667 0.801111111,23.6288889 2.26333333,25.2855556 C3.76444444,26.9811111 5.74777778,27.9844444 7.86333333,28.1011111 C7.88666667,28.1011111 7.90222222,28.1011111 7.92555556,28.1011111 L14.6144444,28.1011111 C15.1977778,28.1011111 15.6644444,27.6344444 15.6644444,27.0511111 C15.6644444,26.4677778 15.1977778,26.0011111 14.6144444,26.0011111 L7.95666667,26.0011111 C4.77555556,25.8066667 2.1,22.7811111 2.1,19.3744444 C2.1,17.1733333 3.28222222,15.12 5.18777778,14.0077778 C5.63111111,13.7511111 5.81777778,13.2144444 5.64666667,12.7322222 C5.49111111,12.3122222 5.41333333,11.8688889 5.41333333,11.3944444 C5.41333333,9.24777778 7.16333333,7.49777778 9.31,7.49777778 C9.76888889,7.49777778 10.22,7.57555556 10.64,7.73111111 C11.1533333,7.91777778 11.7211111,7.68444444 11.9544444,7.19444444 C13.4088889,4.10666667 16.5511111,2.11555556 19.9655556,2.11555556 C24.5544444,2.11555556 28.3422222,5.55333333 28.7777778,10.1111111 C28.8244444,10.5855556 29.1822222,10.9666667 29.6488889,11.0444444 C33.11,11.6355556 35.7233333,14.8322222 35.7233333,18.48 C35.7233333,22.3455556 32.6822222,25.7055556 28.9333333,25.9933333 L23.2011111,25.9933333 C22.6177778,25.9933333 22.1511111,26.46 22.1511111,27.0433333 C22.1511111,27.6266667 22.6177778,28.0933333 23.2011111,28.0933333 L28.9722222,28.0933333 C28.9955556,28.0933333 29.0188889,28.0933333 29.05,28.0933333 C31.4222222,27.9222222 33.6388889,26.8333333 35.2877778,25.0133333 C36.9288889,23.2088889 37.8233333,20.8911111 37.8233333,18.48 C37.8155556,14.1166667 34.8366667,10.2355556 30.7611111,9.16222222 Z" id="Shape"></path>
                    <path d="M25.2155556,20.3777778 C25.6277778,19.9655556 25.6277778,19.3044444 25.2155556,18.8922222 L19.6544444,13.3311111 C19.46,13.1366667 19.1877778,13.02 18.9155556,13.02 C18.6433333,13.02 18.3711111,13.1288889 18.1766667,13.3311111 L12.6155556,18.8922222 C12.2033333,19.3044444 12.2033333,19.9655556 12.6155556,20.3777778 C12.8177778,20.58 13.09,20.6888889 13.3544444,20.6888889 C13.6188889,20.6888889 13.8911111,20.5877778 14.0933333,20.3777778 L17.8655556,16.6055556 L17.8655556,33.9422222 C17.8655556,34.5255556 18.3322222,34.9922222 18.9155556,34.9922222 C19.4988889,34.9922222 19.9655556,34.5255556 19.9655556,33.9422222 L19.9655556,16.6055556 L23.7377778,20.3777778 C24.1422222,20.79 24.8033333,20.79 25.2155556,20.3777778 Z" id="Shape"></path>
                </g>
            </g>
        </g>
    </g>
</svg>