<?xml version="1.0" encoding="UTF-8"?>
<svg width="35px" height="35px" viewBox="0 0 35 35" version="1.1" xmlns="http://www.w3.org/2000/svg" xmlns:xlink="http://www.w3.org/1999/xlink">
    <!-- Generator: Sketch 51.2 (57519) - http://www.bohemiancoding.com/sketch -->
    <title>building-2</title>
    <desc>Created with Sketch.</desc>
    <defs></defs>
    <g id="Selected" stroke="none" stroke-width="1" fill="none" fill-rule="evenodd">
        <g id="MyTax-Services-Copy-3" transform="translate(-1062.000000, -1024.000000)" fill="#004D86" fill-rule="nonzero">
            <g id="Group-9" transform="translate(1062.000000, 1024.000000)">
                <g id="building-2">
                    <path d="M24.4333533,33 L8.56664674,33 C8.25387209,33 8,33.2240061 8,33.4999854 L8,34.5000146 C8,34.7759939 8.25387209,35 8.56664674,35 C8.8794214,35 9.13329349,34.7759939 9.13329349,34.5000146 L9.13329349,34.0000293 L24.4333533,34.0000293 C24.7461279,34.0000293 25,33.7760232 25,33.5000439 C25,33.2240647 24.7461943,33 24.4333533,33 Z" id="Shape"></path>
                    <path d="M13,15.3750183 C13,15.7199924 13.2240039,16 13.4999805,16 L15.5000195,16 C15.7759961,16 16,15.7199924 16,15.3750183 L16,11.6249817 C16,11.2800076 15.7759961,11 15.5000195,11 L13.5000391,11 C13.2240625,11 13.0000586,11.2800076 13.0000586,11.6249817 L13.0000586,15.3750183 L13,15.3750183 Z M14.0000195,12.2500366 L15.0000391,12.2500366 L15.0000391,14.7500366 L14.0000195,14.7500366 L14.0000195,12.2500366 Z" id="Shape"></path>
                    <path d="M7.42859056,7 L0.571409439,7 C0.256005893,7 0,7.26473236 0,7.59088706 L0,19.4091129 C0,19.7352676 0.256005893,20 0.571409439,20 C0.886812984,20 1.14281888,19.7352676 1.14281888,19.4091129 L1.14281888,8.18184336 L7.42859056,8.18184336 C7.74399411,8.18184336 8,7.917111 8,7.5909563 C8,7.26480161 7.74406107,7 7.42859056,7 Z" id="Shape"></path>
                    <path d="M28,29.3750183 C28,29.7199924 28.2240083,30 28.4999902,30 L30.5000098,30 C30.7759917,30 31,29.7199924 31,29.3750183 L31,25.6249817 C31,25.2800076 30.7759917,25 30.5000098,25 L28.4999902,25 C28.2240083,25 28,25.2800076 28,25.6249817 L28,29.3750183 Z M29.0000391,26.2500366 L30.0000781,26.2500366 L30.0000781,28.7500366 L29.0000391,28.7500366 L29.0000391,26.2500366 Z" id="Shape"></path>
                    <path d="M3.00007026,21 C0.0341724083,21 0,28.5075 0,28.5833105 C0,29.9920605 1.03262549,31.1698242 2.40001402,31.4410742 L2.40001402,34.4166895 C2.40001402,34.7386621 2.6688229,35 2.99999995,35 C3.33117699,35 3.59998587,34.7386621 3.59998587,34.4166895 L3.59998587,31.4410742 C4.9673744,31.1698242 5.99999989,29.9920605 5.99999989,28.5833105 C6.00007021,28.5075 5.9658978,21 3.00007026,21 Z M3.00007026,30.3333105 C2.00766415,30.3333105 1.20004217,29.5481348 1.20004217,28.5833105 C1.20004217,25.6771484 2.00288282,22.1666211 3.00007026,22.1666211 C3.9972577,22.1666211 4.80009835,25.6771484 4.80009835,28.5833105 C4.80009835,29.5481348 3.99247637,30.3333105 3.00007026,30.3333105 Z" id="Shape"></path>
                    <path d="M6.50006835,18 L4.49999023,18 C4.22400828,18 4,18.2800035 4,18.6249725 L4,19.8749908 C4,20.2199599 4.22400828,20.4999634 4.49999023,20.4999634 C4.77597218,20.4999634 4.99998046,20.2199599 4.99998046,19.8749908 L4.99998046,19.2500183 L6.00001952,19.2500183 L6.00001952,22.3750275 C6.00001952,22.7199965 6.2240278,23 6.50000976,23 C6.77599171,23 6.99999999,22.7199965 6.99999999,22.3750275 L6.99999999,18.6250458 C7.00005858,18.2800035 6.7760503,18 6.50006835,18 Z" id="Shape"></path>
                    <path d="M28.4999902,16 L30.5000098,16 C30.7759917,16 31,15.7199924 31,15.3750183 L31,11.6249817 C31,11.2800076 30.7759917,11 30.5000098,11 L28.4999902,11 C28.2240083,11 28,11.2800076 28,11.6249817 L28,15.3750183 C28,15.7199924 28.2240083,16 28.4999902,16 Z M29.0000391,12.2499634 L30.0000781,12.2499634 L30.0000781,14.7499634 L29.0000391,14.7499634 L29.0000391,12.2499634 Z" id="Shape"></path>
                    <path d="M6.50006835,11 L4.49999023,11 C4.22400828,11 4,11.2800076 4,11.6249817 L4,15.3750183 C4,15.7199924 4.22400828,16 4.49999023,16 L6.50000976,16 C6.77599171,16 6.99999999,15.7199924 6.99999999,15.3750183 L6.99999999,11.6249817 C7.00005858,11.2800076 6.7760503,11 6.50006835,11 Z M6.00001952,14.7500366 L5.00003906,14.7500366 L5.00003906,12.2500366 L6.00007812,12.2500366 L6.00007812,14.7500366 L6.00001952,14.7500366 Z" id="Shape"></path>
                    <path d="M19,15.3750183 C19,15.7199924 19.2240083,16 19.4999902,16 L21.5000098,16 C21.7759917,16 22,15.7199924 22,15.3750183 L22,11.6249817 C22,11.2800076 21.7759917,11 21.5000098,11 L19.4999902,11 C19.2240083,11 19,11.2800076 19,11.6249817 L19,15.3750183 Z M19.9999805,12.2500366 L21.0000195,12.2500366 L21.0000195,14.7500366 L19.9999805,14.7500366 L19.9999805,12.2500366 Z" id="Shape"></path>
                    <path d="M34.4285906,7 L27.5714094,7 C27.2560059,7 27,7.26133789 27,7.58331055 C27,7.9052832 27.2560059,8.16662109 27.5714094,8.16662109 L33.8571811,8.16662109 L33.8571811,31.6073242 C33.6777828,31.5419727 33.4874692,31.5 33.2857717,31.5 C33.1869318,31.5 33.0886277,31.50875 32.9920647,31.52625 C32.5977768,30.8011621 31.8475047,30.3333105 31.000067,30.3333105 C30.1526292,30.3333105 29.4023572,30.8011621 29.0080692,31.52625 C28.9115062,31.50875 28.8132021,31.5 28.7143622,31.5 C27.769223,31.5 27.000067,32.2851758 27.000067,33.25 C27.000067,34.2148242 27.769223,35 28.7143622,35 L33.2857047,35 C34.2308439,35 35,34.2148242 35,33.25 L35,7.58331055 C35,7.26133789 34.7439941,7 34.4285906,7 Z M33.2857047,33.8333105 L28.7142283,33.8333105 C28.3993605,33.8333105 28.1428189,33.5714258 28.1428189,33.25 C28.1428189,32.9285742 28.3993605,32.6666895 28.7142283,32.6666895 C28.8239164,32.6666895 28.9279125,32.69875 29.0239399,32.7617773 C29.1805032,32.8644531 29.3759731,32.8831152 29.548541,32.8119531 C29.7211089,32.740791 29.8485427,32.5879395 29.8902617,32.4030273 C30.010865,31.8716016 30.4674301,31.5 31,31.5 C31.5325699,31.5 31.989135,31.8716016 32.1097383,32.4030273 C32.1514573,32.5879395 32.2788911,32.740791 32.451459,32.8119531 C32.6234912,32.8831152 32.8194298,32.8644531 32.9760601,32.7617773 C33.3480488,32.5167773 33.8571811,32.8166016 33.8571811,33.25 C33.8571142,33.5714258 33.6005725,33.8333105 33.2857047,33.8333105 Z" id="Shape"></path>
                    <path d="M19.4999902,9 L21.5000098,9 C21.7759917,9 22,8.71999238 22,8.37501831 L22,4.62498169 C22,4.28000762 21.7759917,4 21.5000098,4 L19.4999902,4 C19.2240083,4 19,4.28000762 19,4.62498169 L19,8.37501831 C19,8.71999238 19.2240083,9 19.4999902,9 Z M19.9999805,5.24996338 L21.0000195,5.24996338 L21.0000195,7.74996338 L19.9999805,7.74996338 L19.9999805,5.24996338 Z" id="Shape"></path>
                    <path d="M19,22.3750183 C19,22.7199924 19.2240083,23 19.4999902,23 L21.5000098,23 C21.7759917,23 22,22.7199924 22,22.3750183 L22,18.6249817 C22,18.2800076 21.7759917,18 21.5000098,18 L19.4999902,18 C19.2240083,18 19,18.2800076 19,18.6249817 L19,22.3750183 Z M19.9999805,19.2500366 L21.0000195,19.2500366 L21.0000195,21.7500366 L19.9999805,21.7500366 L19.9999805,19.2500366 Z" id="Shape"></path>
                    <path d="M13.4999902,9 L15.5000098,9 C15.7759917,9 16,8.71999238 16,8.37501831 L16,4.62498169 C16,4.28000762 15.7759917,4 15.5000098,4 L13.4999902,4 C13.2240083,4 13,4.28000762 13,4.62498169 L13,8.37501831 C12.9999414,8.71999238 13.2239497,9 13.4999902,9 Z M13.9999805,5.24996338 L15.0000195,5.24996338 L15.0000195,7.74996338 L13.9999805,7.74996338 L13.9999805,5.24996338 Z" id="Shape"></path>
                    <path d="M17.1450082,28.1396398 C17.0550152,28.2352092 17,28.3660348 17,28.4968605 C17,28.6276862 17.0550152,28.758453 17.1450082,28.8540813 C17.2399813,28.9446393 17.3699906,29 17.5,29 C17.6300094,29 17.7599602,28.9446393 17.8549918,28.8540813 C17.9449848,28.7585119 18,28.6276862 18,28.4968605 C18,28.3660348 17.9449848,28.2352681 17.8549918,28.1396398 C17.6649871,27.9534534 17.3350129,27.9534534 17.1450082,28.1396398 Z" id="Shape"></path>
                    <path d="M13,22.3750183 C13,22.7199924 13.2240039,23 13.4999805,23 L15.5000195,23 C15.7759961,23 16,22.7199924 16,22.3750183 L16,18.6249817 C16,18.2800076 15.7759961,18 15.5000195,18 L13.5000391,18 C13.2240625,18 13.0000586,18.2800076 13.0000586,18.6249817 L13.0000586,22.3750183 L13,22.3750183 Z M14.0000195,19.2500366 L15.0000391,19.2500366 L15.0000391,21.7500366 L14.0000195,21.7500366 L14.0000195,19.2500366 Z" id="Shape"></path>
                    <path d="M12,25.5833162 C12,25.905292 12.2688073,26.1666325 12.5999824,26.1666325 L14.4,26.1666325 L14.4,31.4166838 C14.4,31.7386596 14.6688073,32 14.9999824,32 C15.3311575,32 15.5999648,31.7386596 15.5999648,31.4166838 L15.5999648,26.1666325 L20.4000352,26.1666325 L20.4000352,31.4166838 C20.4000352,31.7386596 20.6688425,32 21.0000176,32 C21.3311927,32 21.6,31.7386596 21.6,31.4166838 L21.6,26.1666325 L23.4000176,26.1666325 C23.7311927,26.1666325 24,25.905292 24,25.5833162 C24,25.2613404 23.7311927,25 23.4000176,25 L12.5999824,25 C12.2688073,25 12,25.2613404 12,25.5833162 Z" id="Shape"></path>
                    <path d="M28,22.3750183 C28,22.7199924 28.2240083,23 28.4999902,23 L30.5000098,23 C30.7759917,23 31,22.7199924 31,22.3750183 L31,18.6249817 C31,18.2800076 30.7759917,18 30.5000098,18 L28.4999902,18 C28.2240083,18 28,18.2800076 28,18.6249817 L28,22.3750183 Z M29.0000391,19.2500366 L30.0000781,19.2500366 L30.0000781,21.7500366 L29.0000391,21.7500366 L29.0000391,19.2500366 Z" id="Shape"></path>
                    <path d="M24.4285905,0 L9.57140944,0 C9.25600589,0 9,0.257190228 9,0.574052895 L9,30.4259471 C9,30.7428098 9.25600589,31 9.57140944,31 C9.88681298,31 10.1428189,30.7428098 10.1428189,30.4259471 L10.1428189,1.14810579 L23.8571811,1.14810579 L23.8571811,30.4259471 C23.8571811,30.7428098 24.113187,31 24.4285905,31 C24.7439941,31 25,30.7428098 25,30.4259471 L25,0.574052895 C25.000067,0.257190228 24.7440611,0 24.4285905,0 Z" id="Shape"></path>
                </g>
            </g>
        </g>
    </g>
</svg>